<svg xmlns="http://www.w3.org/2000/svg" xmlns:xlink="http://www.w3.org/1999/xlink" width="118.148" height="81.427" viewBox="0 0 118.148 81.427">
  <defs>
    <filter id="Icon_ionic-md-pin" x="0" y="0" width="55.751" height="73.251" filterUnits="userSpaceOnUse">
      <feOffset dy="3" input="SourceAlpha"/>
      <feGaussianBlur stdDeviation="2" result="blur"/>
      <feFlood flood-opacity="0.529"/>
      <feComposite operator="in" in2="blur"/>
      <feComposite in="SourceGraphic"/>
    </filter>
    <filter id="Icon_weather-sunrise" x="37.47" y="16.839" width="80.679" height="64.588" filterUnits="userSpaceOnUse">
      <feOffset dy="3" input="SourceAlpha"/>
      <feGaussianBlur stdDeviation="2" result="blur-2"/>
      <feFlood flood-opacity="0.161"/>
      <feComposite operator="in" in2="blur-2"/>
      <feComposite in="SourceGraphic"/>
    </filter>
  </defs>
  <g id="Agromap_Logo_2" data-name="Agromap Logo 2" transform="translate(6 3)">
    <g transform="matrix(1, 0, 0, 1, -6, -3)" filter="url(#Icon_ionic-md-pin)">
      <path id="Icon_ionic-md-pin-2" data-name="Icon ionic-md-pin" d="M28.625,2.25A21.723,21.723,0,0,0,6.75,23.688C6.75,39.766,28.625,63.5,28.625,63.5S50.5,39.766,50.5,23.688A21.723,21.723,0,0,0,28.625,2.25Zm0,29.094a7.658,7.658,0,1,1,0-15.313,7.658,7.658,0,1,1,0,15.313Z" transform="translate(-0.75 0.75)" fill="#77b948"/>
    </g>
    <g id="Grupo_4672" data-name="Grupo 4672" transform="translate(1.364 16.839)">
      <path id="Trazado_5720" data-name="Trazado 5720" d="M0,0H64.044L62.981,7.008H0Z" transform="translate(0 45.58)" fill="#339ed8"/>
      <g transform="matrix(1, 0, 0, 1, -7.36, -19.84)" filter="url(#Icon_weather-sunrise)">
        <path id="Icon_weather-sunrise-2" data-name="Icon weather-sunrise" d="M3.3,38.071a2.754,2.754,0,0,1,.841-1.934A3.017,3.017,0,0,1,6.1,35.324h6.531a2.481,2.481,0,0,1,1.878.813,2.758,2.758,0,0,1,.757,1.934,2.818,2.818,0,0,1-.757,2.018,2.524,2.524,0,0,1-1.878.813H6.1a2.674,2.674,0,0,1-1.962-.841A2.83,2.83,0,0,1,3.3,38.071ZM12.635,15.7a2.693,2.693,0,0,1,.729-1.906,2.983,2.983,0,0,1,1.99-.841,2.631,2.631,0,0,1,1.906.813l4.6,4.625a2.911,2.911,0,0,1,.785,1.934,2.685,2.685,0,0,1-.757,1.962,2.542,2.542,0,0,1-1.85.785,3.017,3.017,0,0,1-1.962-.813l-4.709-4.513A3.207,3.207,0,0,1,12.635,15.7Zm5.606,37.843a2.456,2.456,0,0,1,.813-1.906,2.646,2.646,0,0,1,1.906-.729h7.372l8.718-8.185a.757.757,0,0,1,.953,0l8.858,8.185h7.765a2.622,2.622,0,0,1,1.934.785,2.524,2.524,0,0,1,.813,1.878,2.776,2.776,0,0,1-2.747,2.747H45.152a1.659,1.659,0,0,1-.813-.2l-6.756-6.363-6.7,6.363a1.422,1.422,0,0,1-.785.2H20.96a2.647,2.647,0,0,1-1.934-.813A2.73,2.73,0,0,1,18.241,53.545ZM20.82,38.071a15.831,15.831,0,0,0,1.738,7.4c.056.336.308.5.7.5h5.27a.461.461,0,0,0,.42-.224.531.531,0,0,0-.056-.533,11.084,11.084,0,0,1,.673-15.193,11.085,11.085,0,0,1,8.1-3.308A11.341,11.341,0,0,1,49.021,38.071a10.934,10.934,0,0,1-2.663,7.148.626.626,0,0,0-.084.533c.056.168.2.224.42.224H52.02a.576.576,0,0,0,.645-.5,14.621,14.621,0,0,0,1.794-7.4,16.086,16.086,0,0,0-1.346-6.5,17.43,17.43,0,0,0-3.588-5.354,17.1,17.1,0,0,0-5.354-3.588,16.158,16.158,0,0,0-6.5-1.318,16.783,16.783,0,0,0-6.531,1.318,17.075,17.075,0,0,0-5.382,3.588,16.707,16.707,0,0,0-3.616,5.354A16.443,16.443,0,0,0,20.82,38.071Zm14.1-25.117V6.507a2.661,2.661,0,0,1,.785-1.99,2.7,2.7,0,0,1,1.99-.785,2.641,2.641,0,0,1,1.962.785,2.769,2.769,0,0,1,.785,2.018v6.447a2.661,2.661,0,0,1-.785,1.99,2.706,2.706,0,0,1-1.962.785,2.661,2.661,0,0,1-1.99-.785A2.725,2.725,0,0,1,34.92,12.955Zm17.8,7.4a2.909,2.909,0,0,1,.757-1.934L58.019,13.8a2.711,2.711,0,0,1,1.962-.813A2.728,2.728,0,0,1,62.7,15.73a3.046,3.046,0,0,1-.729,2.046l-4.709,4.513A2.908,2.908,0,0,1,55.3,23.1a2.356,2.356,0,0,1-1.85-.785A2.831,2.831,0,0,1,52.721,20.355Zm7.316,17.716a2.71,2.71,0,0,1,.757-1.934,2.464,2.464,0,0,1,1.85-.813h6.588a2.648,2.648,0,0,1,1.934.813,2.694,2.694,0,0,1,.813,1.934,2.775,2.775,0,0,1-.813,1.99,2.57,2.57,0,0,1-1.934.841H62.644a2.481,2.481,0,0,1-1.878-.813A3.025,3.025,0,0,1,60.037,38.071Z" transform="translate(40.17 16.11)" fill="#339ed8"/>
      </g>
    </g>
  </g>
</svg>
