<svg xmlns="http://www.w3.org/2000/svg" width="45" height="45" viewBox="0 0 45 45">
  <path id="Avatar" d="M22.5.563A22.5,22.5,0,1,0,45,23.063,22.5,22.5,0,0,0,22.5.563Zm0,8.71a7.984,7.984,0,1,1-7.984,7.984A7.984,7.984,0,0,1,22.5,9.272Zm0,31.21A17.386,17.386,0,0,1,9.209,34.294a10.115,10.115,0,0,1,8.936-5.425,2.22,2.22,0,0,1,.644.1,12.012,12.012,0,0,0,3.711.626,11.967,11.967,0,0,0,3.711-.626,2.22,2.22,0,0,1,.644-.1,10.115,10.115,0,0,1,8.936,5.425A17.386,17.386,0,0,1,22.5,40.482Z" transform="translate(0 -0.563)"/>
</svg>
