<svg xmlns="http://www.w3.org/2000/svg" xmlns:xlink="http://www.w3.org/1999/xlink" width="56" height="58.128" viewBox="0 0 56 58.128">
  <defs>
    <filter id="Trazado_5827" x="0" y="0" width="56" height="58.128" filterUnits="userSpaceOnUse">
      <feOffset dy="3" input="SourceAlpha"/>
      <feGaussianBlur stdDeviation="1.5" result="blur"/>
      <feFlood flood-opacity="0.459"/>
      <feComposite operator="in" in2="blur"/>
      <feComposite in="SourceGraphic"/>
    </filter>
  </defs>
  <g id="Cluster_Active_inactive" data-name="Cluster Active inactive" transform="translate(4.5 1.484)">
    <g transform="matrix(1, 0, 0, 1, -4.5, -1.48)" filter="url(#Trazado_5827)">
      <path id="Trazado_5827-2" data-name="Trazado 5827" d="M22.276,28.994c1.981,1.015,4.564,1.481,6.6-.039.989.525,3.535,3.335,4.45,4.275a7.457,7.457,0,0,0,1.415,9.962c2.879,2.63,7.874,1.823,10.162-.546a7.751,7.751,0,0,0,.384-9.988C41.355,27.78,35.87,31,35.22,31.113l-4.134-4.189c.943-2.141,1.359-3.593.407-5.942l6.827-4.959c1.213.56,1.873,1.227,3.765,1.069a5.58,5.58,0,0,0,3.371-1.527c4.226-4.287-.986-11.552-6.446-8.444-3.348,1.905-2.487,4.823-2.453,6.656-1.157.922-2.219,1.657-3.342,2.472a29.362,29.362,0,0,1-3.362,2.408c-1.558-.907-2.183-1.552-4.666-1.536L23.1,9.989c.44-.492.826-.56,1.307-1.2A9.309,9.309,0,0,0,25.284,7.2a5.565,5.565,0,0,0-.136-4.1A5.407,5.407,0,0,0,18.426.348c-5.027,1.8-4.734,9.957,2.019,10.357l2.045,7.083c-.763,1.022-1.94,1.344-2.384,2.84l-9.365-2.446c-.323-1.8-.42-2.488-1.507-3.622a5.324,5.324,0,1,0-5.881,8.564c3.145,1.214,5.037-.471,6.669-2.256,2.1.393,4.543,1.17,6.584,1.694,4.384,1.125,1.545-.01,3.589,4.375l-6.608,6.65c-1.343-.41-2.991-2.005-6.494-1.391A8.505,8.505,0,0,0,2.556,46.644c5.162,5.08,13.517,1.844,14.408-4.562.327-2.353-.331-5.1-1.488-6.359,1.192-1.282,5.65-6,6.8-6.729Z" transform="translate(4.5 1.48)" fill="#fff" fill-rule="evenodd"/>
    </g>
  </g>
</svg>
