<svg xmlns="http://www.w3.org/2000/svg" width="60.796" height="50.666" viewBox="0 0 60.796 50.666">
  <g id="Filter_Open_Close" data-name="Filter Open Close" transform="translate(-3.375 7.375)">
    <path id="Trazado_12" data-name="Trazado 12" d="M30.266,27.318a4.287,4.287,0,0,1,7.854,0h8.058a1.717,1.717,0,0,1,1.712,1.712h0a1.717,1.717,0,0,1-1.712,1.712H38.12a4.287,4.287,0,0,1-7.854,0H5.087A1.717,1.717,0,0,1,3.375,29.03h0a1.717,1.717,0,0,1,1.712-1.712Z" transform="translate(0 9.981)" fill="#fff"/>
    <path id="Trazado_13" data-name="Trazado 13" d="M13.145,17.756a4.287,4.287,0,0,1,7.854,0H46.177a1.717,1.717,0,0,1,1.712,1.712h0a1.717,1.717,0,0,1-1.712,1.712H21a4.287,4.287,0,0,1-7.854,0H5.087a1.717,1.717,0,0,1-1.712-1.712h0a1.717,1.717,0,0,1,1.712-1.712Z" transform="translate(0 4.99)" fill="#fff"/>
    <path id="Trazado_14" data-name="Trazado 14" d="M30.266,8.193a4.287,4.287,0,0,1,7.854,0h8.058a1.717,1.717,0,0,1,1.712,1.712h0a1.717,1.717,0,0,1-1.712,1.712H38.12a4.287,4.287,0,0,1-7.854,0H5.087A1.717,1.717,0,0,1,3.375,9.905h0A1.717,1.717,0,0,1,5.087,8.193Z" transform="translate(0)" fill="#fff"/>
    <g id="Icon_ionic-md-add-circle-outline" data-name="Icon ionic-md-add-circle-outline" transform="translate(41.891 -10.75)">
      <path id="Trazado_16" data-name="Trazado 16" d="M20.2,16.294H16.294V20.2H14.385V16.294H10.477V14.385h3.908V10.477h1.909v3.908H20.2Z" transform="translate(-2.512 -2.512)" fill="#fff"/>
      <path id="Trazado_17" data-name="Trazado 17" d="M12.828,5.284A7.541,7.541,0,1,1,7.492,7.492a7.513,7.513,0,0,1,5.335-2.209m0-1.909a9.453,9.453,0,1,0,9.453,9.453,9.451,9.451,0,0,0-9.453-9.453Z" fill="#fff"/>
    </g>
  </g>
</svg>
