<svg xmlns="http://www.w3.org/2000/svg" width="49.673" height="44.154" viewBox="0 0 49.673 44.154">
  <path id="Layer_ico" data-name="Layer ico" d="M24.837,0A10.866,10.866,0,0,0,13.971,10.866c0,4.852,7.1,13.695,9.823,16.9a1.36,1.36,0,0,0,2.087,0c2.721-3.21,9.823-12.053,9.823-16.9A10.866,10.866,0,0,0,24.837,0Zm0,14.488a3.622,3.622,0,1,1,3.622-3.622A3.622,3.622,0,0,1,24.837,14.488Zm-23.1,4.135A2.76,2.76,0,0,0,0,21.185V42.772a1.38,1.38,0,0,0,1.892,1.282L13.8,38.635v-20.1a26.116,26.116,0,0,1-1.833-4Zm23.1,12.394a4.12,4.12,0,0,1-3.149-1.463c-1.7-2-3.5-4.279-5.13-6.616v15.7l16.558,5.519V22.939c-1.632,2.336-3.434,4.615-5.13,6.616A4.123,4.123,0,0,1,24.837,31.017ZM47.781,13.9,35.875,19.317V44.154l12.063-4.825a2.759,2.759,0,0,0,1.735-2.562V15.18A1.38,1.38,0,0,0,47.781,13.9Z" fill="#fff"/>
</svg>
