<svg xmlns="http://www.w3.org/2000/svg" width="45" height="45" viewBox="0 0 45 45">
  <g id="Tool_Map" data-name="Tool Map" transform="translate(-1759 -25)">
    <path id="Icon_awesome-tools" data-name="Icon awesome-tools" d="M26.753,21.126,20.5,14.874a3.964,3.964,0,0,0-4.56-.742L10.25,8.441V5.125L3.416,0,0,3.417l5.125,6.834H8.44l5.691,5.691a3.973,3.973,0,0,0,.742,4.56l6.252,6.252a1.985,1.985,0,0,0,2.814,0l2.814-2.814a2,2,0,0,0,0-2.814Zm-9.044-9.114a5.617,5.617,0,0,1,4,1.655L22.743,14.7a7.557,7.557,0,0,0,2.338-1.575,7.678,7.678,0,0,0,2.023-7.3.639.639,0,0,0-1.073-.294L22.06,9.509l-3.625-.6-.6-3.625L21.8,1.308A.645.645,0,0,0,21.5.23a7.691,7.691,0,0,0-7.293,2.023,7.566,7.566,0,0,0-2.2,5.531l4.383,4.383a5.816,5.816,0,0,1,1.319-.155Zm-5.547,4.378L9.134,13.364,1,21.506a3.417,3.417,0,0,0,4.832,4.832l6.6-6.6a5.733,5.733,0,0,1-.267-3.348ZM3.416,25.2A1.281,1.281,0,1,1,4.7,23.919,1.285,1.285,0,0,1,3.416,25.2Z" transform="translate(1768.004 34)"/>
    <g id="Elipse_12" data-name="Elipse 12" transform="translate(1759 25)" fill="none" stroke="#000" stroke-width="4">
      <circle cx="22.5" cy="22.5" r="22.5" stroke="none"/>
      <circle cx="22.5" cy="22.5" r="20.5" fill="none"/>
    </g>
  </g>
</svg>
