<svg xmlns="http://www.w3.org/2000/svg" width="45" height="31.5" viewBox="0 0 45 31.5">
  <g id="Upload_Button" transform="translate(-31 -494)">
    <path id="Icon_awesome-cloud-upload-alt" data-name="Icon awesome-cloud-upload-alt" d="M37.8,15.933A6.758,6.758,0,0,0,31.5,6.75a6.716,6.716,0,0,0-3.748,1.139,11.251,11.251,0,0,0-21,5.611c0,.19.007.38.014.57a10.128,10.128,0,0,0,3.361,19.68H36a9,9,0,0,0,1.8-17.817Z" transform="translate(31 491.75)" fill="#fff"/>
    <path id="Unión_1" data-name="Unión 1" d="M2114-3575a2,2,0,0,1-2-2v-7h-5l8-10,8,10h-5v7a2,2,0,0,1-2,2Z" transform="translate(-2061 4097)" fill="#4b4b4b"/>
  </g>
</svg>
