<svg xmlns="http://www.w3.org/2000/svg" width="51.867" height="51.898" viewBox="0 0 51.867 51.898">
  <g id="Charts" transform="translate(-21.218 -611.97)">
    <path id="Icon_awesome-chart-bar" data-name="Icon awesome-chart-bar" d="M33.713,30.433H37.6a1.394,1.394,0,0,0,1.3-1.3V15.522a1.394,1.394,0,0,0-1.3-1.3h-3.89a1.394,1.394,0,0,0-1.3,1.3V29.137a1.394,1.394,0,0,0,1.3,1.3Zm9.725,0h3.89a1.394,1.394,0,0,0,1.3-1.3V5.8a1.394,1.394,0,0,0-1.3-1.3h-3.89a1.394,1.394,0,0,0-1.3,1.3v23.34A1.394,1.394,0,0,0,43.438,30.433Zm-29.175,0h3.89a1.394,1.394,0,0,0,1.3-1.3V22a1.394,1.394,0,0,0-1.3-1.3h-3.89a1.394,1.394,0,0,0-1.3,1.3v7.132a1.394,1.394,0,0,0,1.3,1.3Zm9.725,0h3.89a1.394,1.394,0,0,0,1.3-1.3V9.038a1.394,1.394,0,0,0-1.3-1.3h-3.89a1.394,1.394,0,0,0-1.3,1.3v20.1A1.394,1.394,0,0,0,23.988,30.433Zm26.257,6.483H6.483V6.121A1.62,1.62,0,0,0,4.862,4.5H1.621A1.62,1.62,0,0,0,0,6.121V40.158A3.242,3.242,0,0,0,3.242,43.4h47a1.62,1.62,0,0,0,1.621-1.621V38.537A1.62,1.62,0,0,0,50.246,36.917Z" transform="translate(21.218 620.468)" fill="#fff"/>
    <path id="Trazado_9" data-name="Trazado 9" d="M4.269,16.138,15.692.25l11.393,9.1L35.32-3.458" transform="translate(30.5 617.5)" fill="none" stroke="#fff" stroke-linecap="round" stroke-linejoin="round" stroke-width="3"/>
  </g>
</svg>
