<svg xmlns="http://www.w3.org/2000/svg" width="46.742" height="44.177" viewBox="0 0 46.742 44.177">
  <g id="Create_Layer_Button_Icon_ionic-ios" data-name="Create_Layer_Button_Icon ionic-ios" transform="translate(6.954 -3.375)">
    <g id="Grupo_4558" data-name="Grupo 4558" transform="translate(15.608 3.375)">
      <path id="Trazado_5682" data-name="Trazado 5682" d="M31.7,6.084,14.261,23.522a.679.679,0,0,0-.2.483v2.288a.683.683,0,0,0,.682.682h2.27a.7.7,0,0,0,.492-.2L34.953,9.339a.683.683,0,0,0,0-.967L32.666,6.084A.683.683,0,0,0,31.7,6.084Z" transform="translate(-14.063 -2.804)" fill="#fff"/>
      <path id="Trazado_5683" data-name="Trazado 5683" d="M34.243,5.015,33,3.772l-.017-.017a1.526,1.526,0,0,0-.993-.38,1.5,1.5,0,0,0-1,.388l-.975.984a.349.349,0,0,0,0,.483l.9.9L32.784,8a.344.344,0,0,0,.492,0l.975-.975a1.472,1.472,0,0,0,.38-1A1.562,1.562,0,0,0,34.243,5.015Z" transform="translate(-10.452 -3.375)" fill="#fff"/>
    </g>
    <path id="Trazado_5686" data-name="Trazado 5686" d="M20.881,27.369a1.372,1.372,0,0,1-.966.4H16.377A1.371,1.371,0,0,1,15.01,26.4V22.857a1.372,1.372,0,0,1,.4-.966l.068-.068L28.094,9.208a.341.341,0,0,0-.239-.581H7.267A5.019,5.019,0,0,0,2.25,13.644V32.788A5.019,5.019,0,0,0,7.267,37.8H29.145a5.019,5.019,0,0,0,5.017-5.017V14.926a.339.339,0,0,0-.581-.239L20.949,27.3Z" transform="translate(-9.204 9.748)" fill="#828282"/>
    <path id="Trazado_5685" data-name="Trazado 5685" d="M20.881,27.369a1.372,1.372,0,0,1-.966.4H16.377A1.371,1.371,0,0,1,15.01,26.4V22.857a1.372,1.372,0,0,1,.4-.966l.068-.068L28.094,9.208a.341.341,0,0,0-.239-.581H7.267A5.019,5.019,0,0,0,2.25,13.644V32.788A5.019,5.019,0,0,0,7.267,37.8H29.145a5.019,5.019,0,0,0,5.017-5.017V14.926a.339.339,0,0,0-.581-.239L20.949,27.3Z" transform="translate(-5.204 5.748)" fill="#d5d5d5"/>
    <path id="Trazado_5684" data-name="Trazado 5684" d="M20.881,27.369a1.372,1.372,0,0,1-.966.4H16.377A1.371,1.371,0,0,1,15.01,26.4V22.857a1.372,1.372,0,0,1,.4-.966l.068-.068L28.094,9.208a.341.341,0,0,0-.239-.581H7.267A5.019,5.019,0,0,0,2.25,13.644V32.788A5.019,5.019,0,0,0,7.267,37.8H29.145a5.019,5.019,0,0,0,5.017-5.017V14.926a.339.339,0,0,0-.581-.239L20.949,27.3Z" transform="translate(-1.204 1.748)" fill="#fff"/>
  </g>
</svg>
