<svg xmlns="http://www.w3.org/2000/svg" width="45.44" height="29.72" viewBox="0 0 45.44 29.72">
  <g id="Agromap_Logo" data-name="Agromap Logo" transform="translate(-257 -251.28)">
    <path id="Icon_ionic-md-pin" data-name="Icon ionic-md-pin" d="M16.114,2.25A9.3,9.3,0,0,0,6.75,11.427c0,6.883,9.364,17.043,9.364,17.043s9.364-10.16,9.364-17.043A9.3,9.3,0,0,0,16.114,2.25Zm0,12.455a3.278,3.278,0,1,1,3.344-3.278A3.28,3.28,0,0,1,16.114,14.7Z" transform="translate(250.25 249.03)" fill="#77b948"/>
    <g id="Grupo_4672" data-name="Grupo 4672">
      <path id="Trazado_5720" data-name="Trazado 5720" d="M0,0H27.416l-.455,3H0Z" transform="translate(257.584 278)" fill="#339ed8"/>
      <path id="Icon_weather-sunrise" data-name="Icon weather-sunrise" d="M3.3,18.432a1.179,1.179,0,0,1,.36-.828,1.291,1.291,0,0,1,.84-.348H7.3a1.062,1.062,0,0,1,.8.348,1.181,1.181,0,0,1,.324.828A1.206,1.206,0,0,1,8.1,19.3a1.081,1.081,0,0,1-.8.348H4.5a1.145,1.145,0,0,1-.84-.36A1.211,1.211,0,0,1,3.3,18.432Zm4-9.576a1.153,1.153,0,0,1,.312-.816,1.277,1.277,0,0,1,.852-.36,1.126,1.126,0,0,1,.816.348l1.968,1.98a1.246,1.246,0,0,1,.336.828,1.149,1.149,0,0,1-.324.84,1.088,1.088,0,0,1-.792.336,1.291,1.291,0,0,1-.84-.348L7.608,9.732A1.373,1.373,0,0,1,7.3,8.856Zm2.4,16.2a1.051,1.051,0,0,1,.348-.816,1.133,1.133,0,0,1,.816-.312h3.156l3.732-3.5a.324.324,0,0,1,.408,0l3.792,3.5h3.324a1.122,1.122,0,0,1,.828.336,1.081,1.081,0,0,1,.348.8,1.188,1.188,0,0,1-1.176,1.176H21.216a.71.71,0,0,1-.348-.084l-2.892-2.724L15.108,26.16a.609.609,0,0,1-.336.084H10.86a1.133,1.133,0,0,1-.828-.348A1.169,1.169,0,0,1,9.7,25.056Zm1.1-6.624a6.777,6.777,0,0,0,.744,3.168c.024.144.132.216.3.216H14.1a.2.2,0,0,0,.18-.1.228.228,0,0,0-.024-.228,4.745,4.745,0,0,1,.288-6.5,4.745,4.745,0,0,1,3.468-1.416,4.855,4.855,0,0,1,4.86,4.86,4.681,4.681,0,0,1-1.14,3.06.268.268,0,0,0-.036.228c.024.072.084.1.18.1h2.28a.247.247,0,0,0,.276-.216,6.259,6.259,0,0,0,.768-3.168,6.886,6.886,0,0,0-.576-2.784,7.462,7.462,0,0,0-1.536-2.292A7.321,7.321,0,0,0,20.8,11.82a6.917,6.917,0,0,0-2.784-.564,7.184,7.184,0,0,0-2.8.564,7.309,7.309,0,0,0-2.3,1.536,7.152,7.152,0,0,0-1.548,2.292A7.039,7.039,0,0,0,10.8,18.432ZM16.836,7.68V4.92a1.139,1.139,0,0,1,.336-.852,1.158,1.158,0,0,1,.852-.336,1.131,1.131,0,0,1,.84.336,1.185,1.185,0,0,1,.336.864v2.76a1.139,1.139,0,0,1-.336.852,1.158,1.158,0,0,1-.84.336,1.139,1.139,0,0,1-.852-.336A1.166,1.166,0,0,1,16.836,7.68Zm7.62,3.168a1.245,1.245,0,0,1,.324-.828l1.944-1.98a1.16,1.16,0,0,1,.84-.348,1.168,1.168,0,0,1,1.164,1.176,1.3,1.3,0,0,1-.312.876L26.4,11.676a1.245,1.245,0,0,1-.84.348,1.009,1.009,0,0,1-.792-.336A1.212,1.212,0,0,1,24.456,10.848Zm3.132,7.584a1.16,1.16,0,0,1,.324-.828,1.055,1.055,0,0,1,.792-.348h2.82a1.133,1.133,0,0,1,.828.348,1.153,1.153,0,0,1,.348.828,1.188,1.188,0,0,1-.348.852,1.1,1.1,0,0,1-.828.36H28.7a1.062,1.062,0,0,1-.8-.348A1.3,1.3,0,0,1,27.588,18.432Z" transform="translate(269.74 254.756)" fill="#339ed8"/>
    </g>
  </g>
</svg>
