<svg xmlns="http://www.w3.org/2000/svg" width="72.951" height="40.051" viewBox="0 0 72.951 40.051">
  <g id="Grupo_4596" data-name="Grupo 4596" transform="translate(-27 -996.321)">
    <g id="Icon_ionic-md-cloudy" data-name="Icon ionic-md-cloudy" transform="translate(27 996.321)">
      <path id="Trazado_5707" data-name="Trazado 5707" d="M8.677,12.88c.053-.013.107-.013.16-.027A.8.8,0,0,1,8.677,12.88Z" transform="translate(3.526 -2.6)" fill="#fff"/>
      <path id="Trazado_5708" data-name="Trazado 5708" d="M50.471,22.566A18.7,18.7,0,0,0,32.155,7.453c-5.3,0-10.146,1.869-13.47,6.061a18.76,18.76,0,0,1,12.109,5.313,19.1,19.1,0,0,1,4.993,8.651H31.314A14.845,14.845,0,0,0,17.2,17.466a15.1,15.1,0,0,0-2.75.267A15.019,15.019,0,0,0,17.2,47.5H49.6a12.485,12.485,0,0,0,.868-24.938Z" transform="translate(-2.25 -7.453)" fill="#fff"/>
    </g>
    <path id="Icon_awesome-layer-group" data-name="Icon awesome-layer-group" d="M.7,8.32l13.093,5.94a1.439,1.439,0,0,0,1.2,0L28.08,8.32a1.256,1.256,0,0,0,0-2.25L14.988.13a1.439,1.439,0,0,0-1.2,0L.7,6.069A1.256,1.256,0,0,0,.7,8.32Zm27.383,4.962L24.816,11.8,15.73,15.92a3.24,3.24,0,0,1-2.682,0L3.963,11.8.7,13.282a1.255,1.255,0,0,0,0,2.248l13.093,5.935a1.444,1.444,0,0,0,1.2,0L28.081,15.53a1.255,1.255,0,0,0,0-2.248Zm0,7.183-3.253-1.474-9.1,4.124a3.24,3.24,0,0,1-2.682,0l-9.1-4.124L.7,20.465a1.255,1.255,0,0,0,0,2.248l13.093,5.935a1.444,1.444,0,0,0,1.2,0l13.094-5.935a1.255,1.255,0,0,0,0-2.248Z" transform="translate(71.172 1005.773)" fill="#a4a4a4"/>
  </g>
</svg>
